<?xml version="1.0" encoding="UTF-8" standalone="no"?>
<!-- Created with Inkscape (http://www.inkscape.org/) -->
<svg xmlns:rdf="http://www.w3.org/1999/02/22-rdf-syntax-ns#" xmlns="http://www.w3.org/2000/svg" version="1.1" xmlns:cc="http://creativecommons.org/ns#" xmlns:dc="http://purl.org/dc/elements/1.1/" viewBox="0 0 92 18">
 <metadata>
  <rdf:RDF>
   <cc:Work rdf:about="">
    <dc:format>image/svg+xml</dc:format>
    <dc:type rdf:resource="http://purl.org/dc/dcmitype/StillImage"/>
    <dc:title/>
   </cc:Work>
  </rdf:RDF>
 </metadata>
 <g transform="translate(80.285704,-126.2193)">
  <g style="writing-mode:lr-tb;letter-spacing:0px;text-anchor:start;word-spacing:0px;text-align:start;" font-weight="normal" transform="matrix(1.009032,0,0,0.99104884,-148.2857,-908.1429)" line-height="125%" font-stretch="normal" font-size="40.36128235px" font-variant="normal" font-style="normal" font-family="Open Sans">
   <path fill="#070716" d="m72.907,1047.4c1.1706,0.0001,2.087,0.4583,2.7492,1.3747,0.66217,0.9105,0.99326,2.1609,0.99327,3.7513-0.000011,1.6377-0.34292,2.9059-1.0287,3.8046-0.67992,0.8986-1.6082,1.348-2.7847,1.348-1.1647,0-2.0782-0.4228-2.7403-1.2682h-0.18624l-0.45229,1.0908h-2.0663v-13.799h2.7049v3.2104c-0.000005,0.4079-0.03548,1.0612-0.10642,1.9599h0.10642c0.63261-0.9814,1.5697-1.4721,2.8113-1.4722m-0.86911,2.1639c-0.6681,0.0001-1.1559,0.207-1.4633,0.6208-0.30744,0.408-0.46708,1.085-0.4789,2.0309v0.2927c-0.000005,1.0642,0.15667,1.8269,0.47003,2.288,0.31926,0.4612,0.8218,0.6918,1.5076,0.6918,0.55575,0,0.99622-0.2543,1.3214-0.7627,0.33108-0.5144,0.49662-1.2593,0.49663-2.2349-0.000008-0.9755-0.16555-1.7057-0.49663-2.1905-0.3311-0.4907-0.78339-0.736-1.3569-0.7361"/>
   <path fill="#070716" d="m85.909,1057.5-0.36361-1.2682-0.1419,0c-0.28971,0.4612-0.70062,0.8189-1.2327,1.0731-0.53211,0.2483-1.1381,0.3725-1.818,0.3725-1.1647,0-2.0427-0.3104-2.6339-0.9312-0.59123-0.6267-0.88685-1.5254-0.88684-2.696v-6.4651h2.7049v5.7911c-0.000004,0.7154,0.12711,1.2534,0.38134,1.614,0.25422,0.3548,0.65922,0.5321,1.215,0.5321,0.75677,0,1.3037-0.2512,1.6407-0.7538,0.33699-0.5084,0.50549-1.348,0.5055-2.5186v-4.6648h2.7049v9.9149h-2.0752"/>
   <path fill="#7651cf" d="m99.85,1052.5c-0.00001,1.6141-0.4257,2.8763-1.2771,3.7868-0.85138,0.9105-2.0368,1.3658-3.5562,1.3658-0.95188,0-1.7914-0.207-2.5186-0.6208-0.72722-0.4198-1.2859-1.0199-1.6761-1.8003-0.39021-0.7804-0.58532-1.6909-0.58532-2.7315-0.000001-1.62,0.42273-2.8793,1.2682-3.7779,0.84546-0.8987,2.0338-1.348,3.5651-1.3481,0.95187,0.0001,1.7914,0.207,2.5186,0.6208,0.7272,0.4139,1.2859,1.0081,1.6761,1.7826s0.58531,1.682,0.58532,2.7226"/>
   <path fill="#070716" d="m100.67,1047.6,2.9621,0,1.8712,5.5782c0.15963,0.4848,0.269,1.0583,0.32813,1.7205h0.0532c0.065-0.6089,0.19215-1.1824,0.38134-1.7205l1.8358-5.5782h2.9l-4.1948,11.183c-0.3843,1.0346-0.93415,1.8092-1.6495,2.3235-0.70948,0.5144-1.5402,0.7716-2.492,0.7716-0.46708,0-0.92528-0.05-1.3746-0.1508v-2.1461c0.32517,0.077,0.67991,0.1152,1.0642,0.1152,0.47889,0,0.89571-0.1478,1.2504-0.4434,0.36065-0.2897,0.64148-0.7301,0.8425-1.3214l0.15964-0.4877-3.9376-9.844"/>
  </g>
  <path style="text-align:start;" fill="#FFF" d="m-26.72,129.88c1.1812,0.0001,2.1059,0.4542,2.774,1.3624,0.66815,0.90235,1.0022,2.1416,1.0022,3.7177-0.000011,1.623-0.34602,2.8799-1.038,3.7706-0.68606,0.89055-1.6227,1.3359-2.8098,1.3359-1.1752,0-2.0969-0.41902-2.7651-1.2568h-0.18792l-0.45638,1.081h-2.085v-13.676h2.7293v3.1817c-0.000005,0.40425-0.0358,1.0517-0.10738,1.9424h0.10738c0.63832-0.97262,1.5839-1.4589,2.8367-1.459m-0.87696,2.1445c-0.67413,0.00009-1.1663,0.20514-1.4765,0.61524-0.31022,0.40435-0.4713,1.0753-0.48322,2.0127v0.29008c-0.000005,1.0547,0.15809,1.8106,0.47427,2.2675,0.32214,0.45707,0.82923,0.68561,1.5213,0.68561,0.56077,0,1.0052-0.25203,1.3333-0.75588,0.33407-0.50979,0.50111-1.248,0.50112-2.2149-0.000008-0.96677-0.16705-1.6904-0.50112-2.1709-0.33409-0.48631-0.79046-0.72942-1.3691-0.72951"/>
  <path style="text-align:start;" fill="#FFF" d="m-13.601,139.9-0.36689-1.2568-0.14318,0c-0.29233,0.45707-0.70694,0.81157-1.2438,1.0635-0.53692,0.24608-1.1484,0.36917-1.8345,0.36917-1.1752,0-2.0612-0.30762-2.6577-0.92286-0.59657-0.6211-0.89486-1.5118-0.89486-2.6719v-6.4072h2.7293v5.7393c-0.000004,0.709,0.12826,1.2422,0.38479,1.5996,0.25652,0.35163,0.66517,0.52734,1.226,0.52734,0.7636,0,1.3154-0.24895,1.6555-0.74705,0.34004-0.50385,0.51006-1.3359,0.51007-2.4961v-4.623h2.7293v9.8262h-2.094"/>
  <path style="text-align:start;" d="m0.46597,134.96c-0.00001,1.5996-0.42954,2.8506-1.2886,3.7529-0.85907,0.90235-2.0552,1.3536-3.5884,1.3536-0.96048,0-1.8076-0.20515-2.5414-0.61524-0.73378-0.41605-1.2975-1.0108-1.6913-1.7842-0.39374-0.77341-0.5906-1.6758-0.5906-2.707-0.000001-1.6055,0.42655-2.8535,1.2796-3.7441,0.85309-0.89066,2.0522-1.3359,3.5973-1.336,0.96047,0.0001,1.8076,0.20515,2.5414,0.61525,0.73377,0.41019,1.2975,0.99907,1.6913,1.7666,0.39372,0.76757,0.59059,1.667,0.5906,2.6982" fill="#7651cf"/>
  <path style="text-align:start;" fill="#FFF" d="m1.2892,130.07,2.9888,0,1.8881,5.5283c0.16107,0.48046,0.27143,1.0488,0.33109,1.7051h0.05368c0.06559-0.60345,0.19389-1.1718,0.38478-1.7051l1.8524-5.5283h2.9262l-4.2327,11.083c-0.38777,1.0253-0.94259,1.793-1.6644,2.3027-0.71589,0.50979-1.5541,0.76469-2.5145,0.76469-0.4713,0-0.93364-0.0496-1.387-0.14945v-2.1269c0.32811,0.0763,0.68605,0.11417,1.0738,0.11417,0.48322,0,0.9038-0.14648,1.2617-0.43943,0.36391-0.28711,0.64727-0.72357,0.85011-1.3096l0.16108-0.48334-3.9732-9.7559"/>
 </g>
</svg>
