<?xml version="1.0" encoding="UTF-8" standalone="no"?>
<!-- Created with Inkscape (http://www.inkscape.org/) -->
<svg xmlns:rdf="http://www.w3.org/1999/02/22-rdf-syntax-ns#" xmlns="http://www.w3.org/2000/svg" version="1.1" xmlns:cc="http://creativecommons.org/ns#" xmlns:dc="http://purl.org/dc/elements/1.1/" viewBox="0 0 350 62">
 <metadata>
  <rdf:RDF>
   <cc:Work rdf:about="">
    <dc:format>image/svg+xml</dc:format>
    <dc:type rdf:resource="http://purl.org/dc/dcmitype/StillImage"/>
    <dc:title/>
   </cc:Work>
  </rdf:RDF>
 </metadata>
 <g transform="translate(626.42857,47.209317)">
  <g fill-opacity="0.94117647" fill="#5ccc5f" transform="translate(-547.05179,-585.86184)">
   <path style="baseline-shift:baseline;block-progression:tb;color:#000000;direction:ltr;text-indent:0;text-align:start;enable-background:accumulate;text-transform:none;" d="m111.62,538.65c-17.127,0-31,13.904-31,31s13.873,31,31,31,31-13.904,31-31-13.873-31-31-31zm0,1.9628c16.003,0,28.987,12.981,28.987,29.037s-12.983,29.037-28.987,29.037c-16.003,0-28.987-12.981-28.987-29.037s12.983-29.037,28.987-29.037z"/>
   <path d="m125.43,571.57s-0.30629-0.41676-1.031-0.6946c0,0-0.0603-0.0184-0.15399-0.0485-0.64605-0.30294-1.2586-0.4971-1.2586-0.4971-0.13054-0.0469-0.24436-0.0937-0.35148-0.13892-0.43684-0.21758-0.75317-0.46697-0.75317-0.46697s-0.003-0.003-0.33977-0.33976c0.60421-0.62597,1.0478-1.4762,1.1867-2.2896,0.10712-0.11047,0.21591-0.28789,0.26278-0.57074,0.087-0.31467,0.19582-0.86532,0.003-1.1214-0.0117-0.0134-0.0218-0.0251-0.0335-0.0368,0.18077-0.6628,0.41174-2.0319-0.40839-2.9658-0.0736-0.0937-0.53224-0.64271-1.5164-0.93394l-0.46864-0.16235c-0.77494-0.23934-1.262-0.29122-1.2821-0.29457-0.0351-0.003-0.072,0-0.10545,0.008-0.0268,0.008-0.11883,0.0318-0.18913,0.0218-0.18579-0.0268-0.46362,0.0686-0.51384,0.0887-0.0636,0.0251-1.5632,0.62597-2.0168,2.0219-0.0419,0.11214-0.22428,0.70631,0.0167,2.1624-0.0351,0.0234-0.0669,0.0536-0.0971,0.0904-0.19415,0.25608-0.0854,0.80339,0.003,1.1197,0.0452,0.27951,0.15399,0.45525,0.25943,0.5674,0.1205,0.80338,0.50546,1.5766,1.0126,2.1691,0,0,0.38496,0.66614,0.4335,0.72807,1.2201,1.8076,1.3741,5.2923,1.3892,5.684l0.002,0.0251-0.002,0.0268c-0.0201,1.2185-0.62597,1.6419-0.95068,1.7825-0.15733,0.0703-0.32135,0.13223-0.48705,0.19583,0.082-0.12051,0.16235-0.32973,0.16737-0.69962,0,0-0.11883-5.1199-1.1515-6.648,0,0-0.29457-0.40169-0.99252-0.66782,0,0-0.0569-0.0184-0.14896-0.0468-0.61928-0.29123-1.2084-0.47701-1.2084-0.47701-0.12553-0.0452-0.23767-0.0887-0.33809-0.1339-0.41843-0.20921-0.72472-0.44855-0.72472-0.44855s-0.003-0.003-0.32638-0.32805c0.58078-0.60254,1.0076-1.4193,1.1398-2.1993,0.10544-0.10544,0.20921-0.27784,0.2544-0.54898,0.082-0.30294,0.18746-0.83184,0.002-1.0779-0.0101-0.0117-0.0201-0.0234-0.0302-0.0351,0.17407-0.63768,0.395-1.9532-0.39332-2.852-0.072-0.0887-0.51383-0.61761-1.4578-0.89712l-0.4519-0.15398c-0.74314-0.2293-1.2118-0.28119-1.2319-0.28286-0.0335-0.003-0.0686,0-0.1021,0.0101-0.0268,0.007-0.11381,0.0301-0.18243,0.0218-0.17742-0.0268-0.44522,0.0653-0.49208,0.0837-0.0602,0.0234-1.5013,0.60087-1.9382,1.9432-0.0402,0.10879-0.21424,0.67953,0.0167,2.0788-0.0351,0.0234-0.0653,0.0519-0.0921,0.087-0.18579,0.24436-0.0803,0.77326,0.002,1.0762,0.0452,0.26946,0.14896,0.44019,0.25106,0.54563,0.11548,0.77159,0.48538,1.5164,0.97411,2.0855l-0.13892,0.21256-0.003-0.0134-0.005,0.0285c0.002-0.005,0.005-0.0117,0.007-0.015v0.002l-0.008,0.0134c-0.19582,0.61091-2.5407,1.3239-2.5407,1.3239-0.69626,0.26612-0.99084,0.66781-0.99084,0.66781-1.031,1.5281-1.1515,6.6464-1.1515,6.6464,0.005,0.36655,0.0837,0.57241,0.16235,0.69292-0.15901-0.0586-0.32136-0.11883-0.47367-0.18578-0.3247-0.14059-0.93226-0.56739-0.95067-1.7842v-0.0268-0.0268c0.0151-0.39166,0.17072-3.873,1.3674-5.6505,0.0653-0.0904,0.27951-0.35817,0.67451-0.63434l-0.002-0.002c0.60421-0.62598,1.0478-1.4762,1.1867-2.2896,0.10712-0.11047,0.21591-0.28789,0.26445-0.57074,0.087-0.31466,0.19583-0.86532,0.002-1.1214-0.0101-0.0134-0.0218-0.0251-0.0318-0.0368,0.18077-0.6628,0.41174-2.0319-0.40838-2.9658-0.0686-0.0937-0.5289-0.64272-1.513-0.93394l-0.46864-0.16235c-0.77494-0.23935-1.262-0.29123-1.2821-0.29458-0.0351-0.003-0.072,0-0.10544,0.008-0.0268,0.0101-0.11884,0.0335-0.1908,0.0234-0.18412-0.0267-0.46195,0.0686-0.51216,0.0887-0.0636,0.0234-1.5616,0.6243-2.0168,2.0219-0.0418,0.11214-0.22261,0.70631,0.0167,2.1624-0.0352,0.0234-0.0686,0.0536-0.0971,0.0904-0.19415,0.25608-0.0837,0.80339,0.002,1.1197,0.0452,0.27952,0.15398,0.45526,0.25943,0.56739,0.1205,0.80339,0.50546,1.5766,1.0143,2.1692l-0.14394,0.22093-0.003-0.0151-0.007,0.0301c0.002-0.005,0.007-0.0117,0.008-0.0167v0.002l-0.008,0.015c-0.20252,0.63601-2.6428,1.3775-2.6428,1.3775-0.72472,0.27784-1.031,0.69459-1.031,0.69459-1.0729,1.59-1.1984,5.13-1.1984,5.13,0.01339,0.80674,0.3632,0.8921,0.3632,0.8921,2.4654,1.0996,6.335,1.2938,6.335,1.2938,0.20922,0.007,0.4017-0.005,0.59585-0.0167l0.005,0.0201s1.4561-0.0753,3.1483-0.38496c2.0403,0.49375,4.1174,0.5992,4.1174,0.5992,0.19917,0.005,0.38663-0.007,0.57241-0.0184l0.005,0.0201s2.1675-0.11046,4.2479-0.63434c1.7624,0.33642,3.3123,0.41508,3.3123,0.41508,0.20755,0.007,0.4017-0.005,0.59585-0.0167l0.005,0.0201s3.8696-0.19582,6.335-1.2938c0,0,0.34813-0.0854,0.36152-0.89377,0.005,0.002-0.12051-3.5383-1.1934-5.13z"/>
  </g>
  <g transform="translate(-452.70357,-1083.9215)">
   <g fill-opacity="0.94117647" fill="#5ccc5f" transform="translate(-13.725,46.349983)">
    <path style="baseline-shift:baseline;block-progression:tb;color:#000000;direction:ltr;text-indent:0;text-align:start;enable-background:accumulate;text-transform:none;" d="m95,990.36c-17.127,0-31,13.904-31,31s13.873,31,31,31,31-13.904,31-31-13.873-31-31-31zm0,1.9628c16.003,0,28.987,12.981,28.987,29.037s-12.983,29.037-28.987,29.037c-16.003,0-28.987-12.981-28.987-29.037s12.983-29.037,28.987-29.037z"/>
    <path d="m104.22,1018.6c-0.11464-0.1747-0.32439-0.2603-0.52864-0.2142l-5.9667,1.3431,1.8167-12.798c0.032-0.2273-0.0941-0.4475-0.30687-0.5336-0.21225-0.087-0.45755-0.018-0.59272,0.1672l-12.849,17.521c-0.12115,0.1657-0.12916,0.3884-0.02,0.5626,0.10914,0.1738,0.31138,0.2634,0.51563,0.2258l6.4798-1.2059-1.8933,12.114c-0.0356,0.2278,0.0891,0.4506,0.30236,0.5397,0.0626,0.026,0.12716,0.038,0.19174,0.038,0.15618,0,0.30787-0.073,0.40448-0.2048l12.432-16.984c0.12365-0.1687,0.12966-0.3955,0.015-0.5702z"/>
   </g>
  </g>
  <g fill-opacity="0.94117647" fill="#5ccc5f" transform="translate(-473.68592,-1036.2945)">
   <path style="baseline-shift:baseline;block-progression:tb;color:#000000;direction:ltr;text-indent:0;text-align:start;enable-background:accumulate;text-transform:none;" d="m166.26,989.09c-17.127,0-31,13.904-31,31s13.873,31,31,31,31-13.904,31-31-13.873-31-31-31zm0,1.9628c16.003,0,28.987,12.981,28.987,29.037s-12.983,29.037-28.987,29.037c-16.003,0-28.987-12.981-28.987-29.037s12.983-29.037,28.987-29.037z"/>
   <g transform="matrix(0.14423077,0,0,0.14423077,54.138209,1037.7016)">
    <path style="baseline-shift:baseline;block-progression:tb;color:#000000;direction:ltr;text-indent:0;text-align:start;enable-background:accumulate;text-transform:none;" d="m685.38-191.06c-9.2611,0-16.938,7.6764-16.938,16.938v104c0,9.2611,7.6764,16.906,16.938,16.906h184c9.2611,0,16.906-7.6451,16.906-16.906v-104c0-9.2611-7.6451-16.938-16.906-16.938h-184zm0,13.844,184,0c1.8189,0,3.0625,1.2749,3.0625,3.0938v104c0,1.8189-1.2436,3.0625-3.0625,3.0625h-184c-1.8189,0-3.0938-1.2436-3.0938-3.0625v-104c0-1.8189,1.2749-3.0938,3.0938-3.0938z"/>
    <path d="m699.86-88.138v-68h20l20,25,20-25h20v68h-20v-39l-20,25-20-25v39zm125,0-30-33h20v-35h20v35h20z"/>
   </g>
  </g>
  <g style="writing-mode:lr-tb;letter-spacing:0px;text-anchor:start;word-spacing:0px;text-align:start;" font-weight="normal" transform="matrix(1.009032,0,0,0.99104884,-626.42857,-1037.5715)" line-height="125%" font-stretch="normal" font-size="40.36128235px" font-variant="normal" font-style="normal" font-family="Open Sans">
   <path fill="#403e3b" d="m72.907,1047.4c1.1706,0.0001,2.087,0.4583,2.7492,1.3747,0.66217,0.9105,0.99326,2.1609,0.99327,3.7513-0.000011,1.6377-0.34292,2.9059-1.0287,3.8046-0.67992,0.8986-1.6082,1.348-2.7847,1.348-1.1647,0-2.0782-0.4228-2.7403-1.2682h-0.18624l-0.45229,1.0908h-2.0663v-13.799h2.7049v3.2104c-0.000005,0.4079-0.03548,1.0612-0.10642,1.9599h0.10642c0.63261-0.9814,1.5697-1.4721,2.8113-1.4722m-0.86911,2.1639c-0.6681,0.0001-1.1559,0.207-1.4633,0.6208-0.30744,0.408-0.46708,1.085-0.4789,2.0309v0.2927c-0.000005,1.0642,0.15667,1.8269,0.47003,2.288,0.31926,0.4612,0.8218,0.6918,1.5076,0.6918,0.55575,0,0.99622-0.2543,1.3214-0.7627,0.33108-0.5144,0.49662-1.2593,0.49663-2.2349-0.000008-0.9755-0.16555-1.7057-0.49663-2.1905-0.3311-0.4907-0.78339-0.736-1.3569-0.7361"/>
   <path fill="#403e3b" d="m85.909,1057.5-0.36361-1.2682-0.1419,0c-0.28971,0.4612-0.70062,0.8189-1.2327,1.0731-0.53211,0.2483-1.1381,0.3725-1.818,0.3725-1.1647,0-2.0427-0.3104-2.6339-0.9312-0.59123-0.6267-0.88685-1.5254-0.88684-2.696v-6.4651h2.7049v5.7911c-0.000004,0.7154,0.12711,1.2534,0.38134,1.614,0.25422,0.3548,0.65922,0.5321,1.215,0.5321,0.75677,0,1.3037-0.2512,1.6407-0.7538,0.33699-0.5084,0.50549-1.348,0.5055-2.5186v-4.6648h2.7049v9.9149h-2.0752"/>
   <path d="m99.85,1052.5c-0.00001,1.6141-0.4257,2.8763-1.2771,3.7868-0.85138,0.9105-2.0368,1.3658-3.5562,1.3658-0.95188,0-1.7914-0.207-2.5186-0.6208-0.72722-0.4198-1.2859-1.0199-1.6761-1.8003-0.39021-0.7804-0.58532-1.6909-0.58532-2.7315-0.000001-1.62,0.42273-2.8793,1.2682-3.7779,0.84546-0.8987,2.0338-1.348,3.5651-1.3481,0.95187,0.0001,1.7914,0.207,2.5186,0.6208,0.7272,0.4139,1.2859,1.0081,1.6761,1.7826s0.58531,1.682,0.58532,2.7226" fill-opacity="0.94117647" fill="#5ccc5f"/>
   <path fill="#403e3b" d="m100.67,1047.6,2.9621,0,1.8712,5.5782c0.15963,0.4848,0.269,1.0583,0.32813,1.7205h0.0532c0.065-0.6089,0.19215-1.1824,0.38134-1.7205l1.8358-5.5782h2.9l-4.1948,11.183c-0.3843,1.0346-0.93415,1.8092-1.6495,2.3235-0.70948,0.5144-1.5402,0.7716-2.492,0.7716-0.46708,0-0.92528-0.05-1.3746-0.1508v-2.1461c0.32517,0.077,0.67991,0.1152,1.0642,0.1152,0.47889,0,0.89571-0.1478,1.2504-0.4434,0.36065-0.2897,0.64148-0.7301,0.8425-1.3214l0.15964-0.4877-3.9376-9.844"/>
  </g>
  <text style="writing-mode:lr-tb;letter-spacing:0px;text-anchor:start;word-spacing:0px;text-align:start;" font-weight="normal" transform="scale(1.009032,0.99104884)" font-style="normal" line-height="125%" font-stretch="normal" xml:space="preserve" font-size="40.36128235px" font-variant="normal" y="10.561099" x="-509.26068" font-family="Open Sans" fill="#ffffff"><tspan style="writing-mode:lr-tb;text-anchor:start;text-align:start;" font-weight="bold" font-size="18.16257668px" font-style="normal" line-height="125%" font-stretch="normal" font-variant="normal" y="10.561099" x="-509.26068" font-family="Open Sans" fill="#ffffff">buoy</tspan></text>
  <g transform="translate(-805.52869,-1145.8167)">
   <g fill="#403e3b" transform="translate(13.412279,36.512938)">
    <g transform="matrix(1.1278445,0,0,1.1278445,105.12455,-110.42836)">
     <path style="baseline-shift:baseline;block-progression:tb;color:#000000;direction:ltr;text-indent:0;text-align:start;enable-background:accumulate;text-transform:none;" d="m80.612,1093.1c-1.9443,1.9443-5.1267,1.9444-7.0711,0-0.28362-0.2836-0.5502-0.5997-0.7513-0.9281,0.6434-0.2194,1.2765-0.4749,1.8783-0.8176,0.08577,0.1127,0.18448,0.2283,0.28744,0.3313,1.1798,1.1798,3.0409,1.1577,4.2206-0.022,1.1798-1.1798,1.1797-3.0188-0.000071-4.1986-0.10295-0.1029-0.21864-0.2016-0.33128-0.2874,0.33418-0.594,0.57862-1.2217,0.7955-1.8562,0.33192,0.2018,0.68639,0.4213,0.97227,0.7071,1.9442,1.9442,1.9443,5.1268,0,7.0711z"/>
     <path style="baseline-shift:baseline;block-progression:tb;color:#000000;direction:ltr;text-indent:0;text-align:start;enable-background:accumulate;text-transform:none;" d="m55.157,1067.7c-1.9443,1.9443-1.9443,5.1267,0,7.0711,0.28362,0.2836,0.5997,0.5502,0.92808,0.7513,0.21942-0.6434,0.47496-1.2766,0.81763-1.8783-0.11264-0.086-0.22832-0.1845-0.33128-0.2874-1.1798-1.1799-1.1577-3.041,0.02199-4.2207,1.1798-1.1798,3.0188-1.1797,4.1986,0.0001,0.10296,0.1029,0.20167,0.2186,0.28744,0.3313,0.59397-0.3342,1.2217-0.5787,1.8562-0.7955-0.20181-0.332-0.42122-0.6864-0.70711-0.9723-1.9442-1.9442-5.1267-1.9443-7.0711,0z"/>
    </g>
    <path style="baseline-shift:baseline;block-progression:tb;color:#000000;direction:ltr;text-indent:0;text-align:start;enable-background:accumulate;text-transform:none;" d="m185.23,1104.6c-1.9467-1.9467-5.1332-1.9468-7.0799-0.0001-1.9468,1.9467-1.9468,5.1333-0.00008,7.08s5.1332,1.9467,7.08-0.0001c1.9467-1.9467,1.9466-5.1332-0.00008-7.0798zm-1.4217,1.4216c1.1813,1.1814,1.2102,3.0842,0.029,4.2654-1.1814,1.1814-3.0842,1.1524-4.2655-0.029-1.1813-1.1813-1.1813-3.0551,0.00008-4.2365,1.1812-1.1812,3.055-1.1813,4.2364,0z"/>
    <g transform="matrix(0,1.1278445,-1.1278445,0,1400.2106,1031.5311)">
     <path style="baseline-shift:baseline;block-progression:tb;color:#000000;direction:ltr;text-indent:0;text-align:start;enable-background:accumulate;text-transform:none;" d="m80.612,1093.1c-1.9443,1.9443-5.1267,1.9444-7.0711,0-0.28362-0.2836-0.5502-0.5997-0.7513-0.9281,0.6434-0.2194,1.2765-0.4749,1.8783-0.8176,0.08577,0.1127,0.18448,0.2283,0.28744,0.3313,1.1798,1.1798,3.0409,1.1577,4.2206-0.022,1.1798-1.1798,1.1797-3.0188-0.000071-4.1986-0.10295-0.1029-0.21864-0.2016-0.33128-0.2874,0.33418-0.594,0.57862-1.2217,0.7955-1.8562,0.33192,0.2018,0.68639,0.4213,0.97227,0.7071,1.9442,1.9442,1.9443,5.1268,0,7.0711z"/>
     <path style="baseline-shift:baseline;block-progression:tb;color:#000000;direction:ltr;text-indent:0;text-align:start;enable-background:accumulate;text-transform:none;" d="m55.157,1067.7c-1.9443,1.9443-1.9443,5.1267,0,7.0711,0.28362,0.2836,0.5997,0.5502,0.92808,0.7513,0.21942-0.6434,0.47496-1.2766,0.81763-1.8783-0.11264-0.086-0.22832-0.1845-0.33128-0.2874-1.1798-1.1799-1.1577-3.041,0.02199-4.2207,1.1798-1.1798,3.0188-1.1797,4.1986,0.0001,0.10296,0.1029,0.20167,0.2186,0.28744,0.3313,0.59397-0.3342,1.2217-0.5787,1.8562-0.7955-0.20181-0.332-0.42122-0.6864-0.70711-0.9723-1.9442-1.9442-5.1267-1.9443-7.0711,0z"/>
    </g>
    <g transform="matrix(0.70710678,0.70710678,-0.70710678,0.70710678,836.75948,196.08862)">
     <path style="baseline-shift:baseline;block-progression:tb;color:#000000;direction:ltr;text-indent:0;text-align:start;enable-background:accumulate;text-transform:none;" transform="matrix(1.1278445,0,0,1.1278445,105.15866,-110.3574)" d="m66.969,1068.5,0,8.0625,1.7812,0,0-8.0625-1.7812,0z"/>
     <path style="baseline-shift:baseline;block-progression:tb;color:#000000;direction:ltr;text-indent:0;text-align:start;enable-background:accumulate;text-transform:none;" transform="matrix(1.1278445,0,0,1.1278445,105.15866,-110.3574)" d="m66.969,1084.1,0,8.0625,1.7812,0,0-8.0625-1.7812,0z"/>
     <g transform="matrix(0,1.1278445,-1.1278445,0,1400.1396,1031.5653)">
      <path style="baseline-shift:baseline;block-progression:tb;color:#000000;direction:ltr;text-indent:0;text-align:start;enable-background:accumulate;text-transform:none;" d="m66.969,1068.5,0,8.0625,1.7812,0,0-8.0625-1.7812,0z"/>
      <path style="baseline-shift:baseline;block-progression:tb;color:#000000;direction:ltr;text-indent:0;text-align:start;enable-background:accumulate;text-transform:none;" d="m66.969,1084.1,0,8.0625,1.7812,0,0-8.0625-1.7812,0z"/>
     </g>
    </g>
    <path d="m181.68,1093.1c-8.2724,0-14.97,6.7398-14.97,15.012,0,8.2724,6.6977,14.97,14.97,14.97,8.2724,0,15.012-6.6977,15.012-14.97s-6.7397-15.012-15.012-15.012zm0,2.0185c7.1914,0,12.994,5.8022,12.994,12.994,0,7.1915-5.8023,12.994-12.994,12.994-7.1914,0-12.994-5.8022-12.994-12.994,0-7.1914,5.8023-12.994,12.994-12.994z" style="baseline-shift:baseline;block-progression:tb;color:#000000;direction:ltr;text-indent:0;text-align:start;enable-background:accumulate;text-transform:none;"/>
   </g>
  </g>
  <g fill="#fffafa" transform="translate(-771.52869,-1145.8167)">
   <g fill="#fffafa" transform="translate(13.412279,36.512938)">
    <g transform="matrix(1.1278445,0,0,1.1278445,105.12455,-110.42836)">
     <path style="baseline-shift:baseline;block-progression:tb;color:#000000;direction:ltr;text-indent:0;text-align:start;enable-background:accumulate;text-transform:none;" d="m80.612,1093.1c-1.9443,1.9443-5.1267,1.9444-7.0711,0-0.28362-0.2836-0.5502-0.5997-0.7513-0.9281,0.6434-0.2194,1.2765-0.4749,1.8783-0.8176,0.08577,0.1127,0.18448,0.2283,0.28744,0.3313,1.1798,1.1798,3.0409,1.1577,4.2206-0.022,1.1798-1.1798,1.1797-3.0188-0.000071-4.1986-0.10295-0.1029-0.21864-0.2016-0.33128-0.2874,0.33418-0.594,0.57862-1.2217,0.7955-1.8562,0.33192,0.2018,0.68639,0.4213,0.97227,0.7071,1.9442,1.9442,1.9443,5.1268,0,7.0711z"/>
     <path style="baseline-shift:baseline;block-progression:tb;color:#000000;direction:ltr;text-indent:0;text-align:start;enable-background:accumulate;text-transform:none;" d="m55.157,1067.7c-1.9443,1.9443-1.9443,5.1267,0,7.0711,0.28362,0.2836,0.5997,0.5502,0.92808,0.7513,0.21942-0.6434,0.47496-1.2766,0.81763-1.8783-0.11264-0.086-0.22832-0.1845-0.33128-0.2874-1.1798-1.1799-1.1577-3.041,0.02199-4.2207,1.1798-1.1798,3.0188-1.1797,4.1986,0.0001,0.10296,0.1029,0.20167,0.2186,0.28744,0.3313,0.59397-0.3342,1.2217-0.5787,1.8562-0.7955-0.20181-0.332-0.42122-0.6864-0.70711-0.9723-1.9442-1.9442-5.1267-1.9443-7.0711,0z"/>
    </g>
    <path d="m185.23,1104.6c-1.9467-1.9467-5.1332-1.9468-7.0799-0.0001-1.9468,1.9467-1.9468,5.1333-0.00008,7.08s5.1332,1.9467,7.08-0.0001c1.9467-1.9467,1.9466-5.1332-0.00008-7.0798zm-1.4217,1.4216c1.1813,1.1814,1.2102,3.0842,0.029,4.2654-1.1814,1.1814-3.0842,1.1524-4.2655-0.029-1.1813-1.1813-1.1813-3.0551,0.00008-4.2365,1.1812-1.1812,3.055-1.1813,4.2364,0z" style="baseline-shift:baseline;block-progression:tb;color:#000000;direction:ltr;text-indent:0;text-align:start;enable-background:accumulate;text-transform:none;"/>
    <g transform="matrix(0,1.1278445,-1.1278445,0,1400.2106,1031.5311)">
     <path style="baseline-shift:baseline;block-progression:tb;color:#000000;direction:ltr;text-indent:0;text-align:start;enable-background:accumulate;text-transform:none;" d="m80.612,1093.1c-1.9443,1.9443-5.1267,1.9444-7.0711,0-0.28362-0.2836-0.5502-0.5997-0.7513-0.9281,0.6434-0.2194,1.2765-0.4749,1.8783-0.8176,0.08577,0.1127,0.18448,0.2283,0.28744,0.3313,1.1798,1.1798,3.0409,1.1577,4.2206-0.022,1.1798-1.1798,1.1797-3.0188-0.000071-4.1986-0.10295-0.1029-0.21864-0.2016-0.33128-0.2874,0.33418-0.594,0.57862-1.2217,0.7955-1.8562,0.33192,0.2018,0.68639,0.4213,0.97227,0.7071,1.9442,1.9442,1.9443,5.1268,0,7.0711z"/>
     <path style="baseline-shift:baseline;block-progression:tb;color:#000000;direction:ltr;text-indent:0;text-align:start;enable-background:accumulate;text-transform:none;" d="m55.157,1067.7c-1.9443,1.9443-1.9443,5.1267,0,7.0711,0.28362,0.2836,0.5997,0.5502,0.92808,0.7513,0.21942-0.6434,0.47496-1.2766,0.81763-1.8783-0.11264-0.086-0.22832-0.1845-0.33128-0.2874-1.1798-1.1799-1.1577-3.041,0.02199-4.2207,1.1798-1.1798,3.0188-1.1797,4.1986,0.0001,0.10296,0.1029,0.20167,0.2186,0.28744,0.3313,0.59397-0.3342,1.2217-0.5787,1.8562-0.7955-0.20181-0.332-0.42122-0.6864-0.70711-0.9723-1.9442-1.9442-5.1267-1.9443-7.0711,0z"/>
    </g>
    <g transform="matrix(0.70710678,0.70710678,-0.70710678,0.70710678,836.75948,196.08862)">
     <path style="baseline-shift:baseline;block-progression:tb;color:#000000;direction:ltr;text-indent:0;text-align:start;enable-background:accumulate;text-transform:none;" d="m66.969,1068.5,0,8.0625,1.7812,0,0-8.0625-1.7812,0z" transform="matrix(1.1278445,0,0,1.1278445,105.15866,-110.3574)"/>
     <path style="baseline-shift:baseline;block-progression:tb;color:#000000;direction:ltr;text-indent:0;text-align:start;enable-background:accumulate;text-transform:none;" d="m66.969,1084.1,0,8.0625,1.7812,0,0-8.0625-1.7812,0z" transform="matrix(1.1278445,0,0,1.1278445,105.15866,-110.3574)"/>
     <g transform="matrix(0,1.1278445,-1.1278445,0,1400.1396,1031.5653)">
      <path d="m66.969,1068.5,0,8.0625,1.7812,0,0-8.0625-1.7812,0z" style="baseline-shift:baseline;block-progression:tb;color:#000000;direction:ltr;text-indent:0;text-align:start;enable-background:accumulate;text-transform:none;"/>
      <path d="m66.969,1084.1,0,8.0625,1.7812,0,0-8.0625-1.7812,0z" style="baseline-shift:baseline;block-progression:tb;color:#000000;direction:ltr;text-indent:0;text-align:start;enable-background:accumulate;text-transform:none;"/>
     </g>
    </g>
    <path style="baseline-shift:baseline;block-progression:tb;color:#000000;direction:ltr;text-indent:0;text-align:start;enable-background:accumulate;text-transform:none;" d="m181.68,1093.1c-8.2724,0-14.97,6.7398-14.97,15.012,0,8.2724,6.6977,14.97,14.97,14.97,8.2724,0,15.012-6.6977,15.012-14.97s-6.7397-15.012-15.012-15.012zm0,2.0185c7.1914,0,12.994,5.8022,12.994,12.994,0,7.1915-5.8023,12.994-12.994,12.994-7.1914,0-12.994-5.8022-12.994-12.994,0-7.1914,5.8023-12.994,12.994-12.994z"/>
   </g>
  </g>
 </g>
</svg>
