<?xml version="1.0" encoding="UTF-8" standalone="no"?>
<!-- Created with Inkscape (http://www.inkscape.org/) -->
<svg xmlns:rdf="http://www.w3.org/1999/02/22-rdf-syntax-ns#" xmlns="http://www.w3.org/2000/svg" version="1.1" xmlns:cc="http://creativecommons.org/ns#" xmlns:dc="http://purl.org/dc/elements/1.1/" viewBox="0 0 92 18">
 <metadata>
  <rdf:RDF>
   <cc:Work rdf:about="">
    <dc:format>image/svg+xml</dc:format>
    <dc:type rdf:resource="http://purl.org/dc/dcmitype/StillImage"/>
    <dc:title/>
   </cc:Work>
  </rdf:RDF>
 </metadata>
 <g transform="translate(-228.28573,-200.50502)">
  <g style="writing-mode:lr-tb;letter-spacing:0px;text-anchor:start;word-spacing:0px;text-align:start;" line-height="125%" font-weight="normal" font-size="40.36128235px" transform="matrix(1.009032,0,0,0.99104884,160.28573,-833.85721)" font-stretch="normal" font-variant="normal" font-style="normal" font-family="Open Sans" fill="#070716">
   <path fill="#070716" d="m72.907,1047.4c1.1706,0.0001,2.087,0.4583,2.7492,1.3747,0.66217,0.9105,0.99326,2.1609,0.99327,3.7513-0.000011,1.6377-0.34292,2.9059-1.0287,3.8046-0.67992,0.8986-1.6082,1.348-2.7847,1.348-1.1647,0-2.0782-0.4228-2.7403-1.2682h-0.18624l-0.45229,1.0908h-2.0663v-13.799h2.7049v3.2104c-0.000005,0.4079-0.03548,1.0612-0.10642,1.9599h0.10642c0.63261-0.9814,1.5697-1.4721,2.8113-1.4722m-0.86911,2.1639c-0.6681,0.0001-1.1559,0.207-1.4633,0.6208-0.30744,0.408-0.46708,1.085-0.4789,2.0309v0.2927c-0.000005,1.0642,0.15667,1.8269,0.47003,2.288,0.31926,0.4612,0.8218,0.6918,1.5076,0.6918,0.55575,0,0.99622-0.2543,1.3214-0.7627,0.33108-0.5144,0.49662-1.2593,0.49663-2.2349-0.000008-0.9755-0.16555-1.7057-0.49663-2.1905-0.3311-0.4907-0.78339-0.736-1.3569-0.7361"/>
   <path fill="#070716" d="m85.909,1057.5-0.36361-1.2682-0.1419,0c-0.28971,0.4612-0.70062,0.8189-1.2327,1.0731-0.53211,0.2483-1.1381,0.3725-1.818,0.3725-1.1647,0-2.0427-0.3104-2.6339-0.9312-0.59123-0.6267-0.88685-1.5254-0.88684-2.696v-6.4651h2.7049v5.7911c-0.000004,0.7154,0.12711,1.2534,0.38134,1.614,0.25422,0.3548,0.65922,0.5321,1.215,0.5321,0.75677,0,1.3037-0.2512,1.6407-0.7538,0.33699-0.5084,0.50549-1.348,0.5055-2.5186v-4.6648h2.7049v9.9149h-2.0752"/>
   <path fill="#1ebad6" d="m99.85,1052.5c-0.00001,1.6141-0.4257,2.8763-1.2771,3.7868-0.85138,0.9105-2.0368,1.3658-3.5562,1.3658-0.95188,0-1.7914-0.207-2.5186-0.6208-0.72722-0.4198-1.2859-1.0199-1.6761-1.8003-0.39021-0.7804-0.58532-1.6909-0.58532-2.7315-0.000001-1.62,0.42273-2.8793,1.2682-3.7779,0.84546-0.8987,2.0338-1.348,3.5651-1.3481,0.95187,0.0001,1.7914,0.207,2.5186,0.6208,0.7272,0.4139,1.2859,1.0081,1.6761,1.7826s0.58531,1.682,0.58532,2.7226"/>
   <path fill="#070716" d="m100.67,1047.6,2.9621,0,1.8712,5.5782c0.15963,0.4848,0.269,1.0583,0.32813,1.7205h0.0532c0.065-0.6089,0.19215-1.1824,0.38134-1.7205l1.8358-5.5782h2.9l-4.1948,11.183c-0.3843,1.0346-0.93415,1.8092-1.6495,2.3235-0.70948,0.5144-1.5402,0.7716-2.492,0.7716-0.46708,0-0.92528-0.05-1.3746-0.1508v-2.1461c0.32517,0.077,0.67991,0.1152,1.0642,0.1152,0.47889,0,0.89571-0.1478,1.2504-0.4434,0.36065-0.2897,0.64148-0.7301,0.8425-1.3214l0.15964-0.4877-3.9376-9.844"/>
   <g transform="translate(47.570344,0)">
    <path fill="#FFF" d="m72.907,1047.4c1.1706,0.0001,2.087,0.4583,2.7492,1.3747,0.66217,0.9105,0.99326,2.1609,0.99327,3.7513-0.000011,1.6377-0.34292,2.9059-1.0287,3.8046-0.67992,0.8986-1.6082,1.348-2.7847,1.348-1.1647,0-2.0782-0.4228-2.7403-1.2682h-0.18624l-0.45229,1.0908h-2.0663v-13.799h2.7049v3.2104c-0.000005,0.4079-0.03548,1.0612-0.10642,1.9599h0.10642c0.63261-0.9814,1.5697-1.4721,2.8113-1.4722m-0.86911,2.1639c-0.6681,0.0001-1.1559,0.207-1.4633,0.6208-0.30744,0.408-0.46708,1.085-0.4789,2.0309v0.2927c-0.000005,1.0642,0.15667,1.8269,0.47003,2.288,0.31926,0.4612,0.8218,0.6918,1.5076,0.6918,0.55575,0,0.99622-0.2543,1.3214-0.7627,0.33108-0.5144,0.49662-1.2593,0.49663-2.2349-0.000008-0.9755-0.16555-1.7057-0.49663-2.1905-0.3311-0.4907-0.78339-0.736-1.3569-0.7361"/>
    <path fill="#FFF" d="m85.909,1057.5-0.36361-1.2682-0.1419,0c-0.28971,0.4612-0.70062,0.8189-1.2327,1.0731-0.53211,0.2483-1.1381,0.3725-1.818,0.3725-1.1647,0-2.0427-0.3104-2.6339-0.9312-0.59123-0.6267-0.88685-1.5254-0.88684-2.696v-6.4651h2.7049v5.7911c-0.000004,0.7154,0.12711,1.2534,0.38134,1.614,0.25422,0.3548,0.65922,0.5321,1.215,0.5321,0.75677,0,1.3037-0.2512,1.6407-0.7538,0.33699-0.5084,0.50549-1.348,0.5055-2.5186v-4.6648h2.7049v9.9149h-2.0752"/>
    <path d="m99.85,1052.5c-0.00001,1.6141-0.4257,2.8763-1.2771,3.7868-0.85138,0.9105-2.0368,1.3658-3.5562,1.3658-0.95188,0-1.7914-0.207-2.5186-0.6208-0.72722-0.4198-1.2859-1.0199-1.6761-1.8003-0.39021-0.7804-0.58532-1.6909-0.58532-2.7315-0.000001-1.62,0.42273-2.8793,1.2682-3.7779,0.84546-0.8987,2.0338-1.348,3.5651-1.3481,0.95187,0.0001,1.7914,0.207,2.5186,0.6208,0.7272,0.4139,1.2859,1.0081,1.6761,1.7826s0.58531,1.682,0.58532,2.7226" fill="#1ebad6"/>
    <path fill="#FFF" d="m100.67,1047.6,2.9621,0,1.8712,5.5782c0.15963,0.4848,0.269,1.0583,0.32813,1.7205h0.0532c0.065-0.6089,0.19215-1.1824,0.38134-1.7205l1.8358-5.5782h2.9l-4.1948,11.183c-0.3843,1.0346-0.93415,1.8092-1.6495,2.3235-0.70948,0.5144-1.5402,0.7716-2.492,0.7716-0.46708,0-0.92528-0.05-1.3746-0.1508v-2.1461c0.32517,0.077,0.67991,0.1152,1.0642,0.1152,0.47889,0,0.89571-0.1478,1.2504-0.4434,0.36065-0.2897,0.64148-0.7301,0.8425-1.3214l0.15964-0.4877-3.9376-9.844"/>
   </g>
  </g>
 </g>
</svg>
