<?xml version="1.0" encoding="UTF-8" standalone="no"?>
<!-- Created with Inkscape (http://www.inkscape.org/) -->
<svg xmlns:rdf="http://www.w3.org/1999/02/22-rdf-syntax-ns#" xmlns="http://www.w3.org/2000/svg" version="1.1" xmlns:cc="http://creativecommons.org/ns#" xmlns:dc="http://purl.org/dc/elements/1.1/" viewBox="0 0 190 62">
 <metadata>
  <rdf:RDF>
   <cc:Work rdf:about="">
    <dc:format>image/svg+xml</dc:format>
    <dc:type rdf:resource="http://purl.org/dc/dcmitype/StillImage"/>
    <dc:title/>
   </cc:Work>
  </rdf:RDF>
 </metadata>
 <g transform="translate(-280,-501.36217)">
  <g fill-opacity="0.94117647" fill="#5ccc5f" transform="translate(199.37678,-37.290369)">
   <path style="baseline-shift:baseline;block-progression:tb;color:#000000;direction:ltr;text-indent:0;text-align:start;enable-background:accumulate;text-transform:none;" d="m111.62,538.65c-17.127,0-31,13.904-31,31s13.873,31,31,31,31-13.904,31-31-13.873-31-31-31zm0,1.9628c16.003,0,28.987,12.981,28.987,29.037s-12.983,29.037-28.987,29.037c-16.003,0-28.987-12.981-28.987-29.037s12.983-29.037,28.987-29.037z"/>
   <path d="m125.43,571.57s-0.30629-0.41676-1.031-0.6946c0,0-0.0603-0.0184-0.15399-0.0485-0.64605-0.30294-1.2586-0.4971-1.2586-0.4971-0.13054-0.0469-0.24436-0.0937-0.35148-0.13892-0.43684-0.21758-0.75317-0.46697-0.75317-0.46697s-0.003-0.003-0.33977-0.33976c0.60421-0.62597,1.0478-1.4762,1.1867-2.2896,0.10712-0.11047,0.21591-0.28789,0.26278-0.57074,0.087-0.31467,0.19582-0.86532,0.003-1.1214-0.0117-0.0134-0.0218-0.0251-0.0335-0.0368,0.18077-0.6628,0.41174-2.0319-0.40839-2.9658-0.0736-0.0937-0.53224-0.64271-1.5164-0.93394l-0.46864-0.16235c-0.77494-0.23934-1.262-0.29122-1.2821-0.29457-0.0351-0.003-0.072,0-0.10545,0.008-0.0268,0.008-0.11883,0.0318-0.18913,0.0218-0.18579-0.0268-0.46362,0.0686-0.51384,0.0887-0.0636,0.0251-1.5632,0.62597-2.0168,2.0219-0.0419,0.11214-0.22428,0.70631,0.0167,2.1624-0.0351,0.0234-0.0669,0.0536-0.0971,0.0904-0.19415,0.25608-0.0854,0.80339,0.003,1.1197,0.0452,0.27951,0.15399,0.45525,0.25943,0.5674,0.1205,0.80338,0.50546,1.5766,1.0126,2.1691,0,0,0.38496,0.66614,0.4335,0.72807,1.2201,1.8076,1.3741,5.2923,1.3892,5.684l0.002,0.0251-0.002,0.0268c-0.0201,1.2185-0.62597,1.6419-0.95068,1.7825-0.15733,0.0703-0.32135,0.13223-0.48705,0.19583,0.082-0.12051,0.16235-0.32973,0.16737-0.69962,0,0-0.11883-5.1199-1.1515-6.648,0,0-0.29457-0.40169-0.99252-0.66782,0,0-0.0569-0.0184-0.14896-0.0468-0.61928-0.29123-1.2084-0.47701-1.2084-0.47701-0.12553-0.0452-0.23767-0.0887-0.33809-0.1339-0.41843-0.20921-0.72472-0.44855-0.72472-0.44855s-0.003-0.003-0.32638-0.32805c0.58078-0.60254,1.0076-1.4193,1.1398-2.1993,0.10544-0.10544,0.20921-0.27784,0.2544-0.54898,0.082-0.30294,0.18746-0.83184,0.002-1.0779-0.0101-0.0117-0.0201-0.0234-0.0302-0.0351,0.17407-0.63768,0.395-1.9532-0.39332-2.852-0.072-0.0887-0.51383-0.61761-1.4578-0.89712l-0.4519-0.15398c-0.74314-0.2293-1.2118-0.28119-1.2319-0.28286-0.0335-0.003-0.0686,0-0.1021,0.0101-0.0268,0.007-0.11381,0.0301-0.18243,0.0218-0.17742-0.0268-0.44522,0.0653-0.49208,0.0837-0.0602,0.0234-1.5013,0.60087-1.9382,1.9432-0.0402,0.10879-0.21424,0.67953,0.0167,2.0788-0.0351,0.0234-0.0653,0.0519-0.0921,0.087-0.18579,0.24436-0.0803,0.77326,0.002,1.0762,0.0452,0.26946,0.14896,0.44019,0.25106,0.54563,0.11548,0.77159,0.48538,1.5164,0.97411,2.0855l-0.13892,0.21256-0.003-0.0134-0.005,0.0285c0.002-0.005,0.005-0.0117,0.007-0.015v0.002l-0.008,0.0134c-0.19582,0.61091-2.5407,1.3239-2.5407,1.3239-0.69626,0.26612-0.99084,0.66781-0.99084,0.66781-1.031,1.5281-1.1515,6.6464-1.1515,6.6464,0.005,0.36655,0.0837,0.57241,0.16235,0.69292-0.15901-0.0586-0.32136-0.11883-0.47367-0.18578-0.3247-0.14059-0.93226-0.56739-0.95067-1.7842v-0.0268-0.0268c0.0151-0.39166,0.17072-3.873,1.3674-5.6505,0.0653-0.0904,0.27951-0.35817,0.67451-0.63434l-0.002-0.002c0.60421-0.62598,1.0478-1.4762,1.1867-2.2896,0.10712-0.11047,0.21591-0.28789,0.26445-0.57074,0.087-0.31466,0.19583-0.86532,0.002-1.1214-0.0101-0.0134-0.0218-0.0251-0.0318-0.0368,0.18077-0.6628,0.41174-2.0319-0.40838-2.9658-0.0686-0.0937-0.5289-0.64272-1.513-0.93394l-0.46864-0.16235c-0.77494-0.23935-1.262-0.29123-1.2821-0.29458-0.0351-0.003-0.072,0-0.10544,0.008-0.0268,0.0101-0.11884,0.0335-0.1908,0.0234-0.18412-0.0267-0.46195,0.0686-0.51216,0.0887-0.0636,0.0234-1.5616,0.6243-2.0168,2.0219-0.0418,0.11214-0.22261,0.70631,0.0167,2.1624-0.0352,0.0234-0.0686,0.0536-0.0971,0.0904-0.19415,0.25608-0.0837,0.80339,0.002,1.1197,0.0452,0.27952,0.15398,0.45526,0.25943,0.56739,0.1205,0.80339,0.50546,1.5766,1.0143,2.1692l-0.14394,0.22093-0.003-0.0151-0.007,0.0301c0.002-0.005,0.007-0.0117,0.008-0.0167v0.002l-0.008,0.015c-0.20252,0.63601-2.6428,1.3775-2.6428,1.3775-0.72472,0.27784-1.031,0.69459-1.031,0.69459-1.0729,1.59-1.1984,5.13-1.1984,5.13,0.01339,0.80674,0.3632,0.8921,0.3632,0.8921,2.4654,1.0996,6.335,1.2938,6.335,1.2938,0.20922,0.007,0.4017-0.005,0.59585-0.0167l0.005,0.0201s1.4561-0.0753,3.1483-0.38496c2.0403,0.49375,4.1174,0.5992,4.1174,0.5992,0.19917,0.005,0.38663-0.007,0.57241-0.0184l0.005,0.0201s2.1675-0.11046,4.2479-0.63434c1.7624,0.33642,3.3123,0.41508,3.3123,0.41508,0.20755,0.007,0.4017-0.005,0.59585-0.0167l0.005,0.0201s3.8696-0.19582,6.335-1.2938c0,0,0.34813-0.0854,0.36152-0.89377,0.005,0.002-0.12051-3.5383-1.1934-5.13z"/>
  </g>
  <g transform="translate(293.725,-535.35001)">
   <g fill-opacity="0.94117647" fill="#5ccc5f" transform="translate(-13.725,46.349983)">
    <path style="baseline-shift:baseline;block-progression:tb;color:#000000;direction:ltr;text-indent:0;text-align:start;enable-background:accumulate;text-transform:none;" d="m95,990.36c-17.127,0-31,13.904-31,31s13.873,31,31,31,31-13.904,31-31-13.873-31-31-31zm0,1.9628c16.003,0,28.987,12.981,28.987,29.037s-12.983,29.037-28.987,29.037c-16.003,0-28.987-12.981-28.987-29.037s12.983-29.037,28.987-29.037z"/>
    <path d="m104.22,1018.6c-0.11464-0.1747-0.32439-0.2603-0.52864-0.2142l-5.9667,1.3431,1.8167-12.798c0.032-0.2273-0.0941-0.4475-0.30687-0.5336-0.21225-0.087-0.45755-0.018-0.59272,0.1672l-12.849,17.521c-0.12115,0.1657-0.12916,0.3884-0.02,0.5626,0.10914,0.1738,0.31138,0.2634,0.51563,0.2258l6.4798-1.2059-1.8933,12.114c-0.0356,0.2278,0.0891,0.4506,0.30236,0.5397,0.0626,0.026,0.12716,0.038,0.19174,0.038,0.15618,0,0.30787-0.073,0.40448-0.2048l12.432-16.984c0.12365-0.1687,0.12966-0.3955,0.015-0.5702z"/>
   </g>
  </g>
  <g fill-opacity="0.94117647" fill="#5ccc5f" transform="translate(272.74265,-487.72301)">
   <path style="baseline-shift:baseline;block-progression:tb;color:#000000;direction:ltr;text-indent:0;text-align:start;enable-background:accumulate;text-transform:none;" d="m166.26,989.09c-17.127,0-31,13.904-31,31s13.873,31,31,31,31-13.904,31-31-13.873-31-31-31zm0,1.9628c16.003,0,28.987,12.981,28.987,29.037s-12.983,29.037-28.987,29.037c-16.003,0-28.987-12.981-28.987-29.037s12.983-29.037,28.987-29.037z"/>
   <g transform="matrix(0.14423077,0,0,0.14423077,54.138209,1037.7016)">
    <path style="baseline-shift:baseline;block-progression:tb;color:#000000;direction:ltr;text-indent:0;text-align:start;enable-background:accumulate;text-transform:none;" d="m685.38-191.06c-9.2611,0-16.938,7.6764-16.938,16.938v104c0,9.2611,7.6764,16.906,16.938,16.906h184c9.2611,0,16.906-7.6451,16.906-16.906v-104c0-9.2611-7.6451-16.938-16.906-16.938h-184zm0,13.844,184,0c1.8189,0,3.0625,1.2749,3.0625,3.0938v104c0,1.8189-1.2436,3.0625-3.0625,3.0625h-184c-1.8189,0-3.0938-1.2436-3.0938-3.0625v-104c0-1.8189,1.2749-3.0938,3.0938-3.0938z"/>
    <path d="m699.86-88.138v-68h20l20,25,20-25h20v68h-20v-39l-20,25-20-25v39zm125,0-30-33h20v-35h20v35h20z"/>
   </g>
  </g>
 </g>
</svg>
